<?xml version="1.0" encoding="UTF-8"?>
<svg id="Layer_2" data-name="Layer 2" xmlns="http://www.w3.org/2000/svg" viewBox="0 0 200.06 37.66">
  <defs>
    <style>
      .cls-1 {
        fill: #676c76;
      }

      .cls-2 {
        fill: #fff;
      }

      .cls-3 {
        fill: #0289bd;
      }
    </style>
  </defs>
  <g id="Layer_1-2" data-name="Layer 1">
    <g>
      <path class="cls-1" d="M57.01,16.67V0h1.09l6.92,8.88L71.95,0h1.09v16.67h-3.36V7.91l-4.11,5.19h-1.09l-4.11-5.19v8.76h-3.36Z"/>
      <path class="cls-1" d="M78.3,16.67V.29h11.01v3.03h-7.66v3.34h5.62v2.84h-5.62v4.14h7.96v3.03h-11.32Z"/>
      <path class="cls-1" d="M94,16.67V.29h5.36c1.74,0,3.29.33,4.64,1,1.35.67,2.4,1.62,3.16,2.86.76,1.24,1.13,2.67,1.13,4.28s-.38,3.01-1.13,4.26c-.75,1.25-1.81,2.23-3.17,2.93-1.36.7-2.91,1.05-4.63,1.05h-5.36ZM97.36,13.65h1.98c1.65,0,2.98-.48,3.99-1.43,1.01-.95,1.51-2.21,1.51-3.78s-.5-2.84-1.5-3.75-2.33-1.36-4-1.36h-1.98v10.32Z"/>
      <path class="cls-1" d="M112.61,16.67V.29h3.36v16.38h-3.36Z"/>
      <path class="cls-1" d="M120.93,11.83c-.46-1.05-.68-2.17-.68-3.35s.23-2.3.68-3.35c.46-1.05,1.07-1.95,1.85-2.7.78-.75,1.7-1.34,2.78-1.78S127.77,0,128.98,0c1.56,0,2.97.36,4.23,1.08,1.26.72,2.26,1.72,2.99,2.99l-2.53,1.78c-1.16-1.83-2.72-2.75-4.69-2.75-1.53,0-2.8.5-3.8,1.51-1,1.01-1.5,2.31-1.5,3.89s.5,2.85,1.5,3.86c1,1.01,2.26,1.51,3.8,1.51,1.97,0,3.53-.92,4.69-2.76l2.53,1.79c-.72,1.27-1.71,2.26-2.98,2.99-1.27.72-2.69,1.08-4.26,1.08-1.2,0-2.33-.22-3.4-.65-1.07-.44-2-1.03-2.77-1.78s-1.39-1.65-1.85-2.71Z"/>
      <path class="cls-1" d="M140.53,16.67V.29h3.36v16.38h-3.36Z"/>
      <path class="cls-1" d="M149.11,16.67V0h1.09l9.5,10.04V.29h3.36v16.68h-1.13l-9.46-10.13v9.83h-3.36Z"/>
      <path class="cls-1" d="M167.35,8.48c0-1.58.39-3.01,1.16-4.31.78-1.3,1.83-2.32,3.16-3.06S174.45,0,176.03,0s3.04.37,4.38,1.11c1.33.74,2.39,1.76,3.17,3.06.78,1.3,1.17,2.74,1.17,4.31,0,1.18-.23,2.3-.69,3.35-.46,1.05-1.08,1.96-1.86,2.71-.78.75-1.71,1.34-2.78,1.78-1.07.44-2.2.65-3.39.65s-2.32-.22-3.39-.65-1.99-1.03-2.77-1.78-1.39-1.65-1.85-2.71-.68-2.17-.68-3.35ZM170.79,8.48c0,1.58.49,2.88,1.48,3.88s2.25,1.51,3.79,1.51,2.76-.5,3.76-1.51c1-1.01,1.5-2.3,1.5-3.88s-.5-2.86-1.5-3.87c-1-1.01-2.25-1.51-3.76-1.51s-2.79.5-3.78,1.51-1.49,2.3-1.49,3.87Z"/>
      <path class="cls-1" d="M187.94,13.38l2.31-1.75c.53.74,1.12,1.32,1.75,1.75.63.43,1.39.65,2.29.65.72,0,1.28-.16,1.7-.49s.62-.77.62-1.34c0-.26-.04-.48-.13-.68-.08-.19-.24-.37-.45-.54-.22-.17-.42-.3-.61-.4s-.49-.25-.89-.43l-1.75-.79c-1.29-.58-2.28-1.25-2.97-1.99-.69-.74-1.03-1.66-1.03-2.74,0-1.38.52-2.5,1.55-3.35,1.04-.85,2.34-1.27,3.92-1.27,1.25,0,2.34.28,3.27.84.93.56,1.65,1.31,2.16,2.24l-2.3,1.76c-.84-1.26-1.88-1.89-3.13-1.89-.58,0-1.06.14-1.45.41-.39.27-.58.67-.58,1.19,0,.44.14.78.43,1.03.29.25.78.54,1.46.85l1.86.83c.91.4,1.65.81,2.23,1.24.58.43,1.03.94,1.36,1.53.33.6.5,1.28.5,2.04,0,1.49-.54,2.68-1.63,3.57-1.08.89-2.46,1.33-4.13,1.33-1.39,0-2.65-.32-3.76-.97-1.11-.65-1.97-1.52-2.6-2.63Z"/>
      <path class="cls-1" d="M56.75,32.51c-.46-1.05-.68-2.17-.68-3.35s.23-2.3.68-3.35c.46-1.05,1.07-1.95,1.85-2.7.78-.75,1.7-1.34,2.78-1.78s2.22-.65,3.42-.65c1.56,0,2.97.36,4.23,1.08,1.26.72,2.26,1.72,2.99,2.99l-2.53,1.78c-1.16-1.83-2.72-2.75-4.69-2.75-1.53,0-2.8.5-3.8,1.51-1,1.01-1.5,2.31-1.5,3.89s.5,2.85,1.5,3.86c1,1.01,2.26,1.51,3.8,1.51,1.97,0,3.53-.92,4.69-2.76l2.53,1.79c-.72,1.27-1.71,2.26-2.98,2.99-1.27.72-2.69,1.08-4.26,1.08-1.2,0-2.33-.22-3.4-.65-1.07-.44-2-1.03-2.77-1.78s-1.39-1.65-1.85-2.71Z"/>
      <path class="cls-1" d="M76.36,37.35v-16.38h11.01v3.03h-7.66v3.34h5.62v2.84h-5.62v4.14h7.96v3.03h-11.32Z"/>
      <path class="cls-1" d="M92.06,37.35v-16.67h1.09l9.5,10.04v-9.75h3.36v16.68h-1.13l-9.46-10.13v9.83h-3.36Z"/>
      <path class="cls-1" d="M109.71,24v-3.03h13.82v3.03h-5.25v13.35h-3.36v-13.35h-5.22Z"/>
      <path class="cls-1" d="M127.24,37.35v-16.38h6.16c1.74,0,3.16.48,4.26,1.45s1.65,2.25,1.65,3.84c0,1.03-.26,1.95-.77,2.76-.51.81-1.22,1.43-2.12,1.88l4.64,6.45h-3.77l-4.24-5.78h-2.45v5.78h-3.36ZM130.6,28.62h2.8c.77,0,1.38-.21,1.81-.64.44-.42.65-1,.65-1.71s-.22-1.26-.66-1.69c-.44-.43-1.04-.65-1.81-.65h-2.8v4.69Z"/>
      <path class="cls-1" d="M143.04,37.35l7.32-16.67h1.11l7.29,16.67h-3.6l-.92-2.13h-6.7l-.91,2.13h-3.6ZM148.75,32.47h4.31l-2.16-5.51-2.16,5.51Z"/>
      <path class="cls-1" d="M161.23,34.05l2.31-1.75c.53.74,1.12,1.32,1.75,1.75.63.43,1.39.65,2.29.65.72,0,1.28-.16,1.7-.49s.62-.77.62-1.34c0-.26-.04-.48-.13-.68-.08-.19-.24-.37-.45-.54-.22-.17-.42-.3-.61-.4s-.49-.25-.89-.43l-1.75-.79c-1.29-.58-2.28-1.25-2.97-1.99-.69-.74-1.03-1.66-1.03-2.74,0-1.38.52-2.5,1.55-3.35,1.04-.85,2.34-1.27,3.92-1.27,1.25,0,2.34.28,3.27.84.93.56,1.65,1.31,2.16,2.24l-2.3,1.76c-.84-1.26-1.88-1.89-3.13-1.89-.58,0-1.06.14-1.45.41-.39.27-.58.67-.58,1.19,0,.44.14.78.43,1.03.29.25.78.54,1.46.85l1.86.83c.91.4,1.65.81,2.23,1.24.58.43,1.03.94,1.36,1.53.33.6.5,1.28.5,2.04,0,1.49-.54,2.68-1.63,3.57-1.08.89-2.46,1.33-4.13,1.33-1.39,0-2.65-.32-3.76-.97-1.11-.65-1.97-1.52-2.6-2.63Z"/>
    </g>
    <g>
      <path class="cls-3" d="M18.84,0C8.56-.02.05,8.42,0,18.68c-.05,10.23,8.57,18.77,18.95,18.77,10.14,0,18.66-8.49,18.67-18.6C37.63,8.39,29.3.02,18.84,0ZM23.72,34.22l-.04.28h-.28c-1.06,0-1.59-.03-2.09-.06-.9-.05-1.75-.1-5.59.03-.33,0-.58-.08-.75-.27-.32-.36-.24-.91-.17-1.39l.02-.13c.09-.68.29-1.34.48-1.97.36-1.2.71-2.34.37-3.57-.62-.44-.62-1.67-.61-2.59,0-.23,0-.44-.01-.55-.05-.46-.12-.88-.18-1.3-.22-1.52-.41-2.83.04-4.13l.03-.08.06-.06c1.89-1.76,2.17-3.63.85-5.71-1.11-1.76-1.61-3.96-1.47-6.53.12-2.23,2.09-3.51,5.14-3.36,1.05.05,1.71.29,2.12.78.46.54.61,1.39.46,2.75-.04.35-.07.7-.1,1.05-.23,2.53-.47,5.15-2.5,7.22-.41.42-.2,1.06-.15,1.18.96,2.56.31,4.94-.32,7.24-.24.88-.49,1.78-.64,2.67-.08.46-.2.92-.32,1.36-.16.58-.31,1.14-.36,1.7-.15,1.82.57,2.96,2.2,3.5.25.08.62.16,1.02.24,1.33.26,2.98.59,2.81,1.72Z"/>
      <path class="cls-2" d="M20.91,32.51c-.4-.08-.78-.16-1.02-.24-1.63-.54-2.35-1.69-2.2-3.5.05-.56.2-1.12.36-1.7.12-.44.25-.89.32-1.36.15-.89.4-1.8.64-2.67.63-2.3,1.29-4.68.32-7.24-.05-.12-.26-.77.15-1.18,2.03-2.06,2.27-4.68,2.5-7.22.03-.35.06-.7.1-1.05.14-1.36,0-2.2-.46-2.75-.41-.48-1.07-.72-2.12-.78-3.05-.16-5.02,1.13-5.14,3.36-.14,2.58.35,4.78,1.47,6.53,1.32,2.09,1.04,3.95-.85,5.71l-.06.06-.03.08c-.45,1.3-.26,2.61-.04,4.13.06.41.12.84.18,1.3.01.11.01.33.01.55,0,.92,0,2.15.61,2.59.34,1.22,0,2.36-.37,3.57-.19.64-.39,1.3-.48,1.97l-.02.13c-.07.48-.15,1.03.17,1.39.17.19.43.28.75.27,3.84-.13,4.69-.08,5.59-.03.5.03,1.03.06,2.09.06h.28l.04-.28c.17-1.12-1.48-1.45-2.81-1.72Z"/>
    </g>
    <rect class="cls-3" x="44.5" y="0" width="3.31" height="37.66"/>
  </g>
</svg>